<?xml version="1.0" encoding="iso-8859-1"?>
<!-- Generator: Adobe Illustrator 19.0.0, SVG Export Plug-In . SVG Version: 6.00 Build 0)  -->
<svg version="1.1" id="Capa_1" xmlns="http://www.w3.org/2000/svg" xmlns:xlink="http://www.w3.org/1999/xlink" x="0px" y="0px"
	 viewBox="0 0 512 512" style="enable-background:new 0 0 512 512;" xml:space="preserve">
<path style="fill:#404B58;" d="M92.29,77.69c-3.275-3.275-5.3-7.799-5.3-12.796c0-9.994,8.102-18.096,18.096-18.096H264.78
	c9.995,0,18.096,8.101,18.096,18.096c0,9.994-8.102,18.096-18.096,18.096H105.085C100.088,82.99,95.565,80.965,92.29,77.69z"/>
<path style="fill:#E8E8E8;" d="M188.984,498.301L13.586,322.903c-18.114-18.113-18.114-47.482,0-65.595L228.297,42.597
	L469.289,283.59L254.579,498.301C236.465,516.414,207.096,516.414,188.984,498.301z"/>
<rect x="75.437" y="258.534" transform="matrix(-0.7071 -0.7071 0.7071 -0.7071 231.5618 627.9838)" style="opacity:0.1;enable-background:new    ;" width="340.807" height="15"/>
<path style="opacity:0.1;enable-background:new    ;" d="M228.297,42.597l-80.125,80.125c0.22,10.847,4.442,21.573,12.8,29.617
	c16.722,16.094,43.325,15.898,59.808-0.584l7.855-7.855c5.748-5.748,15.067-5.748,20.815,0l36.025,36.025
	c5.748,5.748,5.748,15.067,0,20.815l-46.835,46.834c-16.934,16.934-17.257,44.974-0.003,61.582
	c16.721,16.095,43.326,15.901,59.809-0.582l47.431-47.431c5.748-5.748,15.067-5.748,20.815,0l16.714,17.46
	c0.069,0.072,0.137,0.143,0.205,0.215c11.081,11.634,10.648,30.066-0.713,41.427L219.984,483.16
	c-12.742,12.742-33.4,12.742-46.142,0l15.141,15.141c18.114,18.114,47.482,18.114,65.595,0L469.289,283.59L228.297,42.597z"/>
<path style="fill:#79C6E4;" d="M426.577,457.389c0.001,11.795,4.78,22.472,12.51,30.202c7.73,7.73,18.407,12.509,30.201,12.51
	C492.878,500.1,512,480.978,512,457.389V325.688c0-38.195-15.167-74.826-42.168-101.842L259.091,12.989
	c-16.981-16.981-44.833-17.331-61.521-0.06c-10.058,10.409-13.778,24.665-11.173,37.926c1.509,7.681-1.122,15.597-6.657,21.132
	l-8.895,8.895c-16.935,16.935-17.257,44.976-0.001,61.584c16.722,16.094,43.325,15.898,59.808-0.584l7.855-7.855
	c5.748-5.748,15.067-5.748,20.815,0l36.025,36.025c5.748,5.748,5.748,15.067,0,20.815l-46.835,46.835
	c-16.934,16.934-17.257,44.974-0.003,61.582c16.721,16.095,43.326,15.9,59.809-0.582l47.431-47.431
	c5.748-5.748,15.067-5.748,20.815,0l16.714,17.46c21.35,22.304,33.271,51.986,33.277,82.861L426.577,457.389z"/>
<path style="opacity:0.1;enable-background:new    ;" d="M258.811,133.564l-14.443-14.442c-5.748-5.748-15.067-5.748-20.815,0
	l-6.348,6.347c-15.08,15.08-38.626,16.517-55.331,4.329c2.113,4.628,5.094,8.937,8.97,12.667
	c16.722,16.094,43.325,15.899,59.808-0.584l7.855-7.855C244.092,128.443,253.036,128.3,258.811,133.564z M472.353,226.433
	c16.937,24.097,26.201,52.992,26.201,82.843v131.701c0,23.589-19.123,42.711-42.711,42.711c-9.464,0-18.205-3.083-25.284-8.293
	c2.123,4.558,5.017,8.683,8.529,12.196c7.73,7.73,18.407,12.509,30.201,12.51C492.878,500.1,512,480.978,512,457.389V325.688
	C512,288.699,497.774,253.176,472.353,226.433z M341.108,236.053l-46.235,46.235c-15.08,15.08-38.626,16.517-55.331,4.329
	c2.113,4.628,5.094,8.936,8.969,12.666c16.721,16.095,43.326,15.9,59.809-0.582l47.431-47.431
	c5.564-5.564,14.466-5.725,20.244-0.516l-14.072-14.7C356.175,230.305,346.855,230.305,341.108,236.053z"/>
<g>
	<path style="fill:#404B58;" d="M137.24,273.962c-1.92,0-3.839-0.732-5.303-2.197c-2.929-2.929-2.929-7.677,0-10.606l9.226-9.226
		c2.929-2.929,7.678-2.93,10.606,0c2.929,2.929,2.929,7.677,0,10.607l-9.226,9.226C141.079,273.23,139.159,273.962,137.24,273.962z"
		/>
	<path style="fill:#404B58;" d="M168.71,343.176L168.71,343.176c-8.601-8.601-8.601-22.545,0-31.146l11.408-11.408
		c2.295-2.295,6.016-2.295,8.31,0l22.835,22.835c2.295,2.295,2.295,6.016,0,8.31l-11.408,11.408
		C191.255,351.777,177.311,351.777,168.71,343.176z"/>
	<path style="fill:#404B58;" d="M245.424,382.147c-1.919,0-3.839-0.732-5.303-2.197c-2.929-2.929-2.929-7.677,0-10.606l9.226-9.226
		c2.929-2.929,7.678-2.93,10.606,0c2.93,2.929,2.93,7.677,0.001,10.606l-9.226,9.226
		C249.264,381.415,247.344,382.147,245.424,382.147z"/>
</g>
<path style="opacity:0.1;enable-background:new    ;" d="M18.219,252.674l-4.634,4.634c-18.114,18.114-18.114,47.482,0,65.595
	l175.398,175.398c18.114,18.114,47.482,18.114,65.595,0l4.634-4.634L18.219,252.674z"/>
<g>
</g>
<g>
</g>
<g>
</g>
<g>
</g>
<g>
</g>
<g>
</g>
<g>
</g>
<g>
</g>
<g>
</g>
<g>
</g>
<g>
</g>
<g>
</g>
<g>
</g>
<g>
</g>
<g>
</g>
</svg>
